<svg id="SvgjsSvg1036" width="1024" height="474" xmlns="http://www.w3.org/2000/svg" version="1.1" xmlns:xlink="http://www.w3.org/1999/xlink" xmlns:svgjs="http://svgjs.com/svgjs"><defs id="SvgjsDefs1037"><pattern id="SvgjsPattern1048" x="0" y="0" width="194" height="327.5" patternUnits="userSpaceOnUse"><image id="SvgjsImage1049" xlink:href="https://cdn.processon.com/5e78c1e8e4b015182036e781?e=1584975864&amp;amp;token=trhI0BY8QfVrIGn9nENop6JAc6l5nZuxhjQ62UfM:zFIcMS3EMMUi190w295C_Ube-b4=" width="194" height="327.5" preserveAspectRatio="none" crossOrigin="anonymous" x="0" y="0"></image></pattern><pattern id="SvgjsPattern1056" x="0" y="0" width="194" height="328" patternUnits="userSpaceOnUse"><image id="SvgjsImage1057" xlink:href="https://cdn.processon.com/5e78c25be4b03b99652e948c?e=1584975979&amp;token=trhI0BY8QfVrIGn9nENop6JAc6l5nZuxhjQ62UfM:jhEvNAmQNLu5EGqTws-hRpNm7TU=" width="194" height="328" preserveAspectRatio="none" crossOrigin="anonymous" x="0" y="0"></image></pattern><pattern id="SvgjsPattern1064" x="0" y="0" width="194" height="328" patternUnits="userSpaceOnUse"><image id="SvgjsImage1065" xlink:href="https://cdn.processon.com/5e78c2f8e4b08b615732a0bd?e=1584976136&amp;amp;token=trhI0BY8QfVrIGn9nENop6JAc6l5nZuxhjQ62UfM:qvo3LRmfKldU0iAdDS-08g6pAdM=" width="194" height="328" preserveAspectRatio="none" crossOrigin="anonymous" x="0" y="0"></image></pattern></defs><g id="SvgjsG1038" transform="translate(25,25)"><path id="SvgjsPath1039" d="M 0 4Q 0 0 4 0L 970 0Q 974 0 974 4L 974 420Q 974 424 970 424L 4 424Q 0 424 0 420Z" stroke="#323232" stroke-width="2" fill-opacity="1" fill="#ffe6cc"></path><g id="SvgjsG1040"><text id="SvgjsText1041" font-family="微软雅黑" text-anchor="middle" font-size="13px" width="0" fill="#323232" font-weight="400" align="middle" anchor="middle" family="微软雅黑" size="13px" weight="400" font-style="" y="202.05" transform="rotate(0)"></text></g></g><g id="SvgjsG1042" transform="translate(45,48)"><path id="SvgjsPath1043" d="M 0 4Q 0 0 4 0L 274 0Q 278 0 278 4L 278 341Q 278 345 274 345L 4 345Q 0 345 0 341Z" stroke="#323232" stroke-width="2" fill-opacity="1" fill="#ffffff"></path><g id="SvgjsG1044"><text id="SvgjsText1045" font-family="微软雅黑" text-anchor="middle" font-size="13px" width="0" fill="#323232" font-weight="400" align="middle" anchor="middle" family="微软雅黑" size="13px" weight="400" font-style="" y="162.55" transform="rotate(0)"></text></g></g><g id="SvgjsG1046" transform="translate(87,56.75)"><path id="SvgjsPath1047" d="M 0 0L 194 0L 194 327.5L 0 327.5Z" stroke="none" fill="url(#SvgjsPattern1048)"></path></g><g id="SvgjsG1050" transform="translate(368,48)"><path id="SvgjsPath1051" d="M 0 4Q 0 0 4 0L 274 0Q 278 0 278 4L 278 341Q 278 345 274 345L 4 345Q 0 345 0 341Z" stroke="#323232" stroke-width="2" fill-opacity="1" fill="#ffffff"></path><g id="SvgjsG1052"><text id="SvgjsText1053" font-family="微软雅黑" text-anchor="middle" font-size="13px" width="0" fill="#323232" font-weight="400" align="middle" anchor="middle" family="微软雅黑" size="13px" weight="400" font-style="" y="162.55" transform="rotate(0)"></text></g></g><g id="SvgjsG1054" transform="translate(410,59)"><path id="SvgjsPath1055" d="M 0 0L 194 0L 194 328L 0 328Z" stroke="none" fill="url(#SvgjsPattern1056)"></path></g><g id="SvgjsG1058" transform="translate(697,48)"><path id="SvgjsPath1059" d="M 0 4Q 0 0 4 0L 274 0Q 278 0 278 4L 278 341Q 278 345 274 345L 4 345Q 0 345 0 341Z" stroke="#323232" stroke-width="2" fill-opacity="1" fill="#ffffff"></path><g id="SvgjsG1060"><text id="SvgjsText1061" font-family="微软雅黑" text-anchor="middle" font-size="13px" width="0" fill="#323232" font-weight="400" align="middle" anchor="middle" family="微软雅黑" size="13px" weight="400" font-style="" y="162.55" transform="rotate(0)"></text></g></g><g id="SvgjsG1062" transform="translate(739,56.5)"><path id="SvgjsPath1063" d="M 0 0L 194 0L 194 328L 0 328Z" stroke="none" fill="url(#SvgjsPattern1064)"></path></g></svg>